<mxfile host="app.diagrams.net" modified="2020-09-10T23:52:47.717Z" agent="5.0 (Windows NT 10.0; WOW64) AppleWebKit/537.36 (KHTML, like Gecko) Chrome/78.0.3904.108 Safari/537.36" etag="_D8qHXET__TJpvh1wToz" version="13.6.9" type="github">
  <diagram id="Mj_6zGusavqAz9Um6CDD" name="第 1 页">
    <mxGraphModel dx="868" dy="458" grid="1" gridSize="10" guides="1" tooltips="1" connect="1" arrows="1" fold="1" page="1" pageScale="1" pageWidth="827" pageHeight="1169" math="0" shadow="0">
      <root>
        <mxCell id="0" />
        <mxCell id="1" parent="0" />
        <mxCell id="ucDdya-ZtSSq9LOkElG5-3" value="" style="edgeStyle=orthogonalEdgeStyle;rounded=0;orthogonalLoop=1;jettySize=auto;html=1;" parent="1" source="ucDdya-ZtSSq9LOkElG5-1" target="ucDdya-ZtSSq9LOkElG5-2" edge="1">
          <mxGeometry relative="1" as="geometry" />
        </mxCell>
        <mxCell id="ucDdya-ZtSSq9LOkElG5-1" value="左耳" style="rounded=1;whiteSpace=wrap;html=1;" parent="1" vertex="1">
          <mxGeometry x="70" y="340" width="120" height="60" as="geometry" />
        </mxCell>
        <mxCell id="ucDdya-ZtSSq9LOkElG5-5" value="" style="edgeStyle=orthogonalEdgeStyle;rounded=0;orthogonalLoop=1;jettySize=auto;html=1;" parent="1" source="ucDdya-ZtSSq9LOkElG5-2" target="ucDdya-ZtSSq9LOkElG5-4" edge="1">
          <mxGeometry relative="1" as="geometry" />
        </mxCell>
        <mxCell id="ucDdya-ZtSSq9LOkElG5-2" value="gv_text1 : 左主板SN&lt;br&gt;gv_text2:左蓝牙地址码" style="rounded=1;whiteSpace=wrap;html=1;" parent="1" vertex="1">
          <mxGeometry x="270" y="340" width="160" height="60" as="geometry" />
        </mxCell>
        <mxCell id="ucDdya-ZtSSq9LOkElG5-4" value="gv_text1:GS_SCAN_REC_1001-INF01&lt;br&gt;gv_text2:GS_SCAN_REC_1001-MATSN" style="whiteSpace=wrap;html=1;rounded=1;" parent="1" vertex="1">
          <mxGeometry x="530" y="340" width="250" height="60" as="geometry" />
        </mxCell>
        <mxCell id="ucDdya-ZtSSq9LOkElG5-8" value="" style="edgeStyle=orthogonalEdgeStyle;rounded=0;orthogonalLoop=1;jettySize=auto;html=1;" parent="1" source="ucDdya-ZtSSq9LOkElG5-6" target="ucDdya-ZtSSq9LOkElG5-7" edge="1">
          <mxGeometry relative="1" as="geometry" />
        </mxCell>
        <mxCell id="ucDdya-ZtSSq9LOkElG5-6" value="左主板&lt;br&gt;1344ZEZB" style="rounded=1;whiteSpace=wrap;html=1;" parent="1" vertex="1">
          <mxGeometry x="70" y="525" width="120" height="60" as="geometry" />
        </mxCell>
        <mxCell id="ucDdya-ZtSSq9LOkElG5-10" value="" style="edgeStyle=orthogonalEdgeStyle;rounded=0;orthogonalLoop=1;jettySize=auto;html=1;" parent="1" source="ucDdya-ZtSSq9LOkElG5-7" target="ucDdya-ZtSSq9LOkElG5-9" edge="1">
          <mxGeometry relative="1" as="geometry" />
        </mxCell>
        <mxCell id="ucDdya-ZtSSq9LOkElG5-7" value="左喇叭&lt;br&gt;1344ZELB" style="rounded=1;whiteSpace=wrap;html=1;" parent="1" vertex="1">
          <mxGeometry x="70" y="665" width="120" height="60" as="geometry" />
        </mxCell>
        <mxCell id="ucDdya-ZtSSq9LOkElG5-17" style="edgeStyle=orthogonalEdgeStyle;rounded=0;orthogonalLoop=1;jettySize=auto;html=1;entryX=0.5;entryY=0;entryDx=0;entryDy=0;" parent="1" source="ucDdya-ZtSSq9LOkElG5-9" target="ucDdya-ZtSSq9LOkElG5-16" edge="1">
          <mxGeometry relative="1" as="geometry" />
        </mxCell>
        <mxCell id="ucDdya-ZtSSq9LOkElG5-9" value="左电池&lt;br&gt;1344ZEDC" style="rounded=1;whiteSpace=wrap;html=1;" parent="1" vertex="1">
          <mxGeometry x="70" y="805" width="120" height="60" as="geometry" />
        </mxCell>
        <mxCell id="ucDdya-ZtSSq9LOkElG5-13" value="" style="edgeStyle=orthogonalEdgeStyle;rounded=0;orthogonalLoop=1;jettySize=auto;html=1;" parent="1" source="ucDdya-ZtSSq9LOkElG5-11" target="ucDdya-ZtSSq9LOkElG5-12" edge="1">
          <mxGeometry relative="1" as="geometry" />
        </mxCell>
        <mxCell id="ucDdya-ZtSSq9LOkElG5-11" value="右主板&lt;br&gt;1344YEZB" style="rounded=1;whiteSpace=wrap;html=1;" parent="1" vertex="1">
          <mxGeometry x="320" y="520" width="120" height="65" as="geometry" />
        </mxCell>
        <mxCell id="ucDdya-ZtSSq9LOkElG5-15" value="" style="edgeStyle=orthogonalEdgeStyle;rounded=0;orthogonalLoop=1;jettySize=auto;html=1;" parent="1" source="ucDdya-ZtSSq9LOkElG5-12" target="ucDdya-ZtSSq9LOkElG5-14" edge="1">
          <mxGeometry relative="1" as="geometry" />
        </mxCell>
        <mxCell id="ucDdya-ZtSSq9LOkElG5-12" value="右喇叭&lt;br&gt;1344YELB" style="rounded=1;whiteSpace=wrap;html=1;" parent="1" vertex="1">
          <mxGeometry x="320" y="660" width="120" height="65" as="geometry" />
        </mxCell>
        <mxCell id="ucDdya-ZtSSq9LOkElG5-18" style="edgeStyle=orthogonalEdgeStyle;rounded=0;orthogonalLoop=1;jettySize=auto;html=1;exitX=0.5;exitY=1;exitDx=0;exitDy=0;entryX=0.5;entryY=0;entryDx=0;entryDy=0;" parent="1" source="ucDdya-ZtSSq9LOkElG5-14" target="ucDdya-ZtSSq9LOkElG5-16" edge="1">
          <mxGeometry relative="1" as="geometry">
            <Array as="points">
              <mxPoint x="380" y="890" />
              <mxPoint x="250" y="890" />
            </Array>
          </mxGeometry>
        </mxCell>
        <mxCell id="ucDdya-ZtSSq9LOkElG5-14" value="右电池&lt;br&gt;1344YEDC" style="rounded=1;whiteSpace=wrap;html=1;" parent="1" vertex="1">
          <mxGeometry x="320" y="805" width="120" height="65" as="geometry" />
        </mxCell>
        <mxCell id="ucDdya-ZtSSq9LOkElG5-20" value="" style="edgeStyle=orthogonalEdgeStyle;rounded=0;orthogonalLoop=1;jettySize=auto;html=1;" parent="1" source="ucDdya-ZtSSq9LOkElG5-16" target="ucDdya-ZtSSq9LOkElG5-19" edge="1">
          <mxGeometry relative="1" as="geometry" />
        </mxCell>
        <mxCell id="ucDdya-ZtSSq9LOkElG5-16" value="外观检查&lt;br&gt;1344WG" style="rounded=1;whiteSpace=wrap;html=1;" parent="1" vertex="1">
          <mxGeometry x="190" y="920" width="120" height="60" as="geometry" />
        </mxCell>
        <mxCell id="ucDdya-ZtSSq9LOkElG5-22" value="" style="edgeStyle=orthogonalEdgeStyle;rounded=0;orthogonalLoop=1;jettySize=auto;html=1;" parent="1" source="ucDdya-ZtSSq9LOkElG5-19" target="ucDdya-ZtSSq9LOkElG5-21" edge="1">
          <mxGeometry relative="1" as="geometry" />
        </mxCell>
        <mxCell id="ucDdya-ZtSSq9LOkElG5-19" value="充电盒&lt;br&gt;1344DC" style="whiteSpace=wrap;html=1;rounded=1;" parent="1" vertex="1">
          <mxGeometry x="190" y="1010" width="120" height="60" as="geometry" />
        </mxCell>
        <mxCell id="ucDdya-ZtSSq9LOkElG5-21" value="解绑&lt;br&gt;1344JB" style="whiteSpace=wrap;html=1;rounded=1;" parent="1" vertex="1">
          <mxGeometry x="190" y="1100" width="120" height="60" as="geometry" />
        </mxCell>
        <mxCell id="ucDdya-ZtSSq9LOkElG5-23" value="Text" style="text;html=1;strokeColor=none;fillColor=none;align=center;verticalAlign=middle;whiteSpace=wrap;rounded=0;" parent="1" vertex="1">
          <mxGeometry x="390" y="660" width="40" height="20" as="geometry" />
        </mxCell>
        <mxCell id="ucDdya-ZtSSq9LOkElG5-24" value="1001" style="text;html=1;strokeColor=none;fillColor=none;align=center;verticalAlign=middle;whiteSpace=wrap;rounded=0;fontStyle=1" parent="1" vertex="1">
          <mxGeometry x="230" y="545" width="40" height="20" as="geometry" />
        </mxCell>
        <mxCell id="ucDdya-ZtSSq9LOkElG5-26" value="1002" style="text;html=1;strokeColor=none;fillColor=none;align=center;verticalAlign=middle;whiteSpace=wrap;rounded=0;fontStyle=1" parent="1" vertex="1">
          <mxGeometry x="230" y="685" width="40" height="20" as="geometry" />
        </mxCell>
        <mxCell id="ucDdya-ZtSSq9LOkElG5-27" value="1002" style="text;html=1;strokeColor=none;fillColor=none;align=center;verticalAlign=middle;whiteSpace=wrap;rounded=0;fontStyle=1" parent="1" vertex="1">
          <mxGeometry x="230" y="825" width="40" height="20" as="geometry" />
        </mxCell>
        <mxCell id="ucDdya-ZtSSq9LOkElG5-29" value="1002" style="text;html=1;strokeColor=none;fillColor=none;align=center;verticalAlign=middle;whiteSpace=wrap;rounded=0;" parent="1" vertex="1">
          <mxGeometry x="360" y="940" width="40" height="20" as="geometry" />
        </mxCell>
        <mxCell id="ucDdya-ZtSSq9LOkElG5-30" value="1006" style="text;html=1;strokeColor=none;fillColor=none;align=center;verticalAlign=middle;whiteSpace=wrap;rounded=0;fontStyle=1" parent="1" vertex="1">
          <mxGeometry x="360" y="1120" width="40" height="20" as="geometry" />
        </mxCell>
        <mxCell id="ucDdya-ZtSSq9LOkElG5-31" value="3500" style="text;html=1;strokeColor=none;fillColor=none;align=center;verticalAlign=middle;whiteSpace=wrap;rounded=0;fontStyle=1" parent="1" vertex="1">
          <mxGeometry x="360" y="1030" width="40" height="20" as="geometry" />
        </mxCell>
        <mxCell id="ucDdya-ZtSSq9LOkElG5-32" value="SCREEN" style="text;html=1;strokeColor=none;fillColor=none;align=center;verticalAlign=middle;whiteSpace=wrap;rounded=0;fontStyle=1" parent="1" vertex="1">
          <mxGeometry x="230" y="500" width="40" height="20" as="geometry" />
        </mxCell>
        <mxCell id="oG_owfAzSqcTgTPff0ca-4" value="" style="edgeStyle=orthogonalEdgeStyle;rounded=0;orthogonalLoop=1;jettySize=auto;html=1;" edge="1" parent="1" source="oG_owfAzSqcTgTPff0ca-1" target="oG_owfAzSqcTgTPff0ca-3">
          <mxGeometry relative="1" as="geometry" />
        </mxCell>
        <mxCell id="oG_owfAzSqcTgTPff0ca-1" value="1002" style="text;html=1;strokeColor=none;fillColor=none;align=center;verticalAlign=middle;whiteSpace=wrap;rounded=0;fontStyle=1" vertex="1" parent="1">
          <mxGeometry x="480" y="525" width="40" height="20" as="geometry" />
        </mxCell>
        <mxCell id="oG_owfAzSqcTgTPff0ca-3" value="GV_TEXT1:主板SN MATSN&lt;br&gt;GV_TEXT2:喇叭 MATSN2" style="whiteSpace=wrap;html=1;" vertex="1" parent="1">
          <mxGeometry x="560" y="505" width="180" height="60" as="geometry" />
        </mxCell>
        <mxCell id="oG_owfAzSqcTgTPff0ca-5" value="SM30:ZMES_PROCEDURE&lt;br&gt;需要进行新增更新&lt;br&gt;1344ZEZB&amp;nbsp;&lt;br&gt;1344YEZB&lt;br&gt;1344ZELB&lt;br&gt;1344YELB&lt;br&gt;1344ZEDC&lt;br&gt;1344YEDC&lt;br&gt;1344WG&lt;br&gt;1344DC&lt;br&gt;1344JB" style="rounded=1;whiteSpace=wrap;html=1;" vertex="1" parent="1">
          <mxGeometry x="530" y="585" width="220" height="165" as="geometry" />
        </mxCell>
        <mxCell id="oG_owfAzSqcTgTPff0ca-8" value="" style="edgeStyle=orthogonalEdgeStyle;rounded=0;orthogonalLoop=1;jettySize=auto;html=1;" edge="1" parent="1" source="oG_owfAzSqcTgTPff0ca-6" target="oG_owfAzSqcTgTPff0ca-7">
          <mxGeometry relative="1" as="geometry" />
        </mxCell>
        <mxCell id="oG_owfAzSqcTgTPff0ca-10" value="" style="edgeStyle=orthogonalEdgeStyle;rounded=0;orthogonalLoop=1;jettySize=auto;html=1;" edge="1" parent="1" source="oG_owfAzSqcTgTPff0ca-6" target="oG_owfAzSqcTgTPff0ca-9">
          <mxGeometry relative="1" as="geometry" />
        </mxCell>
        <mxCell id="oG_owfAzSqcTgTPff0ca-6" value="MATSN :主板SN&lt;br&gt;作主键" style="rounded=1;whiteSpace=wrap;html=1;" vertex="1" parent="1">
          <mxGeometry x="294" y="410" width="120" height="60" as="geometry" />
        </mxCell>
        <mxCell id="oG_owfAzSqcTgTPff0ca-7" value="INFO1:蓝牙地址&lt;br&gt;INFO2:喇叭&lt;br&gt;INFO3:电池" style="rounded=1;whiteSpace=wrap;html=1;" vertex="1" parent="1">
          <mxGeometry x="450" y="410" width="120" height="60" as="geometry" />
        </mxCell>
        <mxCell id="oG_owfAzSqcTgTPff0ca-9" value="ZMES_SCAN_REC" style="whiteSpace=wrap;html=1;rounded=1;" vertex="1" parent="1">
          <mxGeometry x="140" y="410" width="120" height="60" as="geometry" />
        </mxCell>
        <mxCell id="oG_owfAzSqcTgTPff0ca-12" value="gv_psmng:订单项目计划总数量&amp;nbsp;&lt;br&gt;afpo&amp;nbsp;" style="rounded=1;whiteSpace=wrap;html=1;" vertex="1" parent="1">
          <mxGeometry x="600" y="410" width="240" height="60" as="geometry" />
        </mxCell>
        <mxCell id="oG_owfAzSqcTgTPff0ca-13" value="matsn:左SN&lt;br&gt;info5:充电盒SN&lt;br&gt;info6:充电盒电池批次" style="rounded=1;whiteSpace=wrap;html=1;" vertex="1" parent="1">
          <mxGeometry x="460" y="1010" width="120" height="60" as="geometry" />
        </mxCell>
      </root>
    </mxGraphModel>
  </diagram>
</mxfile>
